<?xml version="1.0" encoding="utf-8"?>
<!-- Generator: Adobe Illustrator 17.0.1, SVG Export Plug-In . SVG Version: 6.00 Build 0)  -->
<!DOCTYPE svg PUBLIC "-//W3C//DTD SVG 1.1//EN" "http://www.w3.org/Graphics/SVG/1.1/DTD/svg11.dtd">
<svg version="1.1" id="Layer_1" xmlns="http://www.w3.org/2000/svg" xmlns:xlink="http://www.w3.org/1999/xlink" x="0px" y="0px"
	 width="70.8px" height="52.7px" viewBox="0 0 70.8 52.7" enable-background="new 0 0 70.8 52.7" xml:space="preserve">
<g>
	<path fill="#7FA793" d="M58.6,17.8c-3.2-1.4-6-3.2-8.3-5.6c1.6-2.2,3.5-4.3,5.1-6.6c0.5-0.8,1.2-1.5,1.6-2.3c0.8-1.2,1-3.1,2.7-3.3
		c1.3-0.1,2,1.5,1.9,2.8c0,0.6-0.6,1.6-0.4,2.3c0.1,0.3,1.1,0.9,1.4,1.2c1,0.8,1.8,1.7,2.6,2.6c0.4,0.4,0.8,1.1,1.4,1.4
		c0.4,0.2,1,0.3,1.7,0.4c1.2,0.2,2.4,0.2,2.6,1.4c0.1,0.4,0,0.9-0.1,1.3c-0.6,2.2-2.1,4.2-5.3,4c-1.3-0.1-2.2-0.6-3.1-1
		c-0.2-0.1-0.6-0.4-1-0.4c-0.5,0-1,0.6-1.4,0.9C59.4,17.1,59,17.5,58.6,17.8z"/>
	<path fill="#7FA793" d="M58.1,50.9c-0.2,1.2-1.7,1.3-3,1.3c-0.8,0-1.5-0.1-2-0.3c-2.1-1-1.5-4.7-1.6-7.7c-0.1-2.5-0.1-4.6-0.3-6.8
		c-0.5,2.2-1,4.7-1.5,7c-0.2,1.1-0.5,2.1-0.3,3c0.3,1.2,2,1.3,2.1,2.6c0.1,2.1-3.6,2.2-5.1,1.3s-1.1-2.9-0.9-5.1
		c0.2-2.2,0.4-4.3,0.7-6.4c0.3-2,0.5-3.9-0.4-5.1c-4-1-8-2.2-11.4-3.8c-0.5-0.2-1.1-0.7-1.5-0.7s-1.1,0.2-1.7,0.2
		c-0.7,0.1-1.3,0.1-1.6,0.4c-0.6,0.5-0.4,1.7-0.6,2.7c-0.1,0.8-0.2,1.8-0.4,2.5c-0.3,1.1-0.9,2.3-1.4,3.5c-0.2,0.6-0.4,1.2-0.7,1.8
		c-0.2,0.6-0.6,1.2-0.7,1.8c-0.1,0.7,0.1,1.6,0.3,2.1c0.4,1,1.2,2.4,1.7,3.5c0.5,0.9,1,3.5-0.3,3.9c-0.6,0.2-1.2-0.2-1.9-0.5
		c-0.8-0.3-1.4-0.5-1.8-0.8c-1.2-1-1.7-3.2-2.2-4.9c-0.2-0.9-0.5-1.9-0.5-2.9c0-1.2,0-2.4,0-3.5c0,0,4.9-5.9,4.7-8.5
		c-0.3-2.5-9-9-10.5,0c-0.2-0.7-0.3-1.5-0.4-2.2c-0.5-3.5,0.5-6.5,2-8.4c-1.8-2.1-2.3-5.6-2.7-9.1v-1.4c0.1-0.4,0.2-1,0.5-1.1
		c0.2-0.1,0.8-0.1,1.2,0c0.6,0.1,0.9,1.1,1.2,1.9c0.2,0.7,0.4,1.6,0.6,2.5c0.3,1.3,0.7,4.1,1.8,4.4c0.5,0.2,1.6,0,2.4,0.1
		c0.9,0,1.8,0,2.6,0c3.5,0,6.8,0.1,10.2,0.1c1.7,0,3.4,0.3,5.1,0h0.1c1.8-0.5,3.6-0.8,5-1.6c1.5-0.8,2.7-1.8,4-2.5
		c2.3,2.4,5.1,4.3,8.6,5.6c0.3,2.4,0.6,5,0.3,7.5c-0.3,2.3-1,4.5-1.4,6.6c-0.7,3.2-1.3,6.8-1.1,10.9c0,1-0.1,2.9,0.4,3.6
		C56.1,49.4,58.4,48.8,58.1,50.9z"/>
</g>
<path fill="#7FA793" d="M4.6,36.7c-0.6,0.6-1.4,2-2.3,2.2c-0.8,0.2-1.9-1-2.2-2.3c-0.3-1.2,0.6-2.6,1.3-3.5c1.7-2,4.7-4.3,7.7-4.9
	c1.4-0.3,2.7-0.1,4.1-0.4c1.5-0.4,2.5-1.6,3.5-2.6c0.5-0.5,1.1-1,1.7-1.5c8.6-3,7.1,7.8,5,9.2c-2.1,1.4-9.7-0.1-9.7-0.1
	c-0.9-0.5-2,0-3,0.3c-1.1,0.4-2.3,1-3.4,1.6C6,35.2,5.3,35.9,4.6,36.7z"/>
<path fill="#7FA793" d="M16.3,38.6c-0.4,0.4-1.2,0.4-1.6,0l0,0c-0.4-0.4-0.4-1.2,0-1.6l1.3-1.3c0.4-0.4,1.2-0.4,1.6,0l0,0
	c0.4,0.4,0.4,1.2,0,1.6L16.3,38.6z"/>
<path fill="#7FA793" d="M11.9,43c-0.4,0.4-1.2,0.4-1.6,0l0,0c-0.4-0.4-0.4-1.2,0-1.6l1.3-1.3c0.4-0.4,1.2-0.4,1.6,0l0,0
	c0.4,0.4,0.4,1.2,0,1.6L11.9,43z"/>
<path fill="#7FA793" d="M7.4,47.5c-0.4,0.4-1.2,0.4-1.6,0l0,0c-0.4-0.4-0.4-1.2,0-1.6l1.3-1.3c0.4-0.4,1.2-0.4,1.6,0l0,0
	c0.4,0.4,0.4,1.2,0,1.6L7.4,47.5z"/>
</svg>
