<?xml version="1.0" encoding="utf-8"?>
<!-- Generator: Adobe Illustrator 17.0.1, SVG Export Plug-In . SVG Version: 6.00 Build 0)  -->
<!DOCTYPE svg PUBLIC "-//W3C//DTD SVG 1.1//EN" "http://www.w3.org/Graphics/SVG/1.1/DTD/svg11.dtd">
<svg version="1.1" id="Layer_1" xmlns="http://www.w3.org/2000/svg" xmlns:xlink="http://www.w3.org/1999/xlink" x="0px" y="0px"
	 width="68.9px" height="32.6px" viewBox="0 0 68.9 32.6" enable-background="new 0 0 68.9 32.6" xml:space="preserve">
<path fill-rule="evenodd" clip-rule="evenodd" fill="#7FA792" d="M0,28.1c0-0.4,0-0.9,0-1.3c0.5-3.7,3.8-4.6,8.3-4.4
	c-5.4-0.6-5.6-9.2,0.2-9.8c1.7-0.2,3.3,0.1,5.5,0c-1.1-1.7-3.6-3.8-2.8-6.8c1-3.7,6.1-4.9,9.9-5.9c-0.4,1.1-2.1,1.8-1.7,3.9
	c0.2,1.2,1.8,2,3.1,2.6c4.7,2.2,12.3,3.6,12.5,9.9c0.1,3.9-1.8,5.7-5.3,6.1c2.2,0.1,3.9-0.2,5.5,0.1c4.6,0.9,5,7.1,1.4,9.2
	c-0.6,0.3-1.2,0.6-2.1,0.7c-2.9,0.3-6,0-9.1,0c-5.8,0-12.5,0-18.3,0c-3.3,0-5.4-0.5-6.5-2.6C0.3,29.3,0.1,28.5,0,28.1z"/>
<polyline fill-rule="evenodd" clip-rule="evenodd" fill="none" stroke="#7FA792" stroke-width="5" stroke-linecap="round" stroke-linejoin="round" stroke-miterlimit="10" points="
	48.2,19.5 53.2,24.6 66.4,11.4 "/>
</svg>
