<?xml version="1.0" encoding="utf-8"?>
<!-- Generator: Adobe Illustrator 17.0.1, SVG Export Plug-In . SVG Version: 6.00 Build 0)  -->
<!DOCTYPE svg PUBLIC "-//W3C//DTD SVG 1.1//EN" "http://www.w3.org/Graphics/SVG/1.1/DTD/svg11.dtd">
<svg version="1.1" id="Layer_1" xmlns="http://www.w3.org/2000/svg" xmlns:xlink="http://www.w3.org/1999/xlink" x="0px" y="0px"
	 width="83.4px" height="67.9px" viewBox="0 0 83.4 67.9" enable-background="new 0 0 83.4 67.9" xml:space="preserve">
<g>
	<path fill-rule="evenodd" clip-rule="evenodd" fill="#80A894" d="M38.7,14c-3.3,1.2-6.6,1.9-9.8,1.8c-0.4-2.7-0.5-5.5-0.9-8.3
		c-0.1-0.9-0.2-1.9-0.4-2.7c-0.4-1.3-1.6-2.9-0.5-4.2c0.8-1,2.5-0.4,3.3,0.6c0.4,0.5,0.7,1.6,1.3,1.9c0.3,0.2,1.4-0.1,1.9-0.1
		c1.3-0.1,2.5,0,3.7,0c0.6,0,1.3,0.2,1.9,0c0.5-0.1,1-0.5,1.5-0.8c1-0.7,1.9-1.5,2.8-0.8c0.3,0.3,0.6,0.6,0.8,1c1.1,2,1.4,4.4-1,6.5
		c-1,0.8-2,1.1-3,1.4c-0.2,0.1-0.7,0.1-1,0.4c-0.3,0.4-0.4,1.1-0.4,1.6C38.8,13,38.8,13.4,38.7,14z"/>
	<path fill-rule="evenodd" clip-rule="evenodd" fill="#80A894" d="M44.5,21.5c1.4,1.8,2.4,3.9,3.6,5.7c0.6,1,1.3,2.1,2.1,3.1
		c-4.6,3.1-8.7,4.9-8.9,5l0,0c-3.5,2-7.3,4-10.8,5.2c-0.5,0.2-1.3,0.3-1.5,0.5c-0.3,0.3-0.7,0.9-1.1,1.4c-0.4,0.5-0.9,1-0.9,1.4
		c-1.1,3.3-5.4,9-7.5,11.6c-0.1,0-0.1-0.1-0.2-0.1c-1.2-0.6-2.6-1.6-3.7-2.5c-2.8-2.2-4.2-5-4.4-7.4c-2.8-0.3-5.6-2.5-8.3-4.6l-1-1
		c-0.2-0.4-0.6-0.8-0.4-1.2c0.1-0.2,0.5-0.7,0.8-0.9c0.5-0.3,1.4,0.1,2.2,0.5c0.6,0.4,1.4,0.9,2.1,1.4c1.1,0.7,3.3,2.4,4.4,1.9
		c0.5-0.2,1.2-1.1,1.8-1.7c0.7-0.6,1.3-1.2,1.8-1.8c2.5-2.5,4.9-4.7,7.3-7c1.2-1.2,2.6-2.2,3.7-3.5c0,0,0.1,0,0.1-0.1
		c0.9-1.6,2-3.1,2.4-4.6c0.5-1.6,0.7-3.1,1.1-4.6c3.3,0.1,6.7-0.5,10-2C40.9,17.8,42.9,19.4,44.5,21.5z"/>
</g>
<line fill-rule="evenodd" clip-rule="evenodd" fill="#80A894" stroke="#80A894" stroke-width="4" stroke-linecap="round" stroke-linejoin="round" stroke-miterlimit="10" x1="55.5" y1="3.2" x2="81.4" y2="3.2"/>
<path fill-rule="evenodd" clip-rule="evenodd" fill="#80A894" d="M52.7,11.6c1-0.7,2.1,0.4,3,1.4c0.5,0.6,0.9,1.2,1.1,1.7
	c0.7,2.2-2.5,4.3-4.6,6.4c-1.8,1.8-3.3,3.2-4.8,4.8c1.9-1.1,4.2-2.4,6.2-3.6c1-0.6,1.9-1,2.4-1.8c0.7-1.1-0.4-2.4,0.5-3.3
	c1.5-1.5,4.1,1.2,4.4,3c0.3,1.8-1.4,2.8-3.2,4.1c-1.8,1.3-3.9,2.2-5.2,3.8c-1.2,1.4-1.1,1.8-2.4,2.3c-0.1-0.3-2.8-3-5.7-7.7
	c1.9-1.2,3.8-2.7,5.6-4.5c0.8-0.7,2.2-1.9,2.4-2.7C52.9,14.2,50.8,12.8,52.7,11.6z"/>
<path fill-rule="evenodd" clip-rule="evenodd" fill="#80A894" d="M11.2,46c2.8,1.7,9,5.3,12.4,6c-0.8,0-1.4,1-2.2,1.8
	c-0.6,0.6-1.3,1.3-1.9,1.7c-0.9,0.7-2.2,1.3-3.2,1.9c-0.5,0.3-1.1,0.7-1.6,1c-0.6,0.3-1.2,0.6-1.6,1c-0.5,0.5-0.9,1.3-1.1,1.8
	c-0.4,1.1-0.6,2.7-0.8,3.8c-0.2,1-1.4,3.4-2.6,2.9c-0.6-0.2-0.9-0.9-1.2-1.6c-0.4-0.7-0.8-1.3-0.9-1.7c-0.3-1.5,0.6-3.6,1.3-5.2
	c0.4-0.8,0.8-1.8,1.5-2.6c0.8-0.9,1.5-1.8,2.1-2.8c-1-0.1-1.9,0.8-2.6,1.5c-0.8,0.8-1.7,1.8-2.5,2.8c-0.8,1-1.2,2-1.6,3
	c-0.3,0.8-0.5,2.4-1.2,2.9c-0.7,0.5-2.2-0.2-3-1.2c-0.8-1-0.5-2.6-0.2-3.7c0.8-2.5,2.6-5.8,5.1-7.5c1.2-0.8,2.5-1.1,3.6-2
	C10.2,48.7,10.7,47.3,11.2,46z"/>
</svg>
