<?xml version="1.0" encoding="utf-8"?>
<!-- Generator: Adobe Illustrator 17.0.1, SVG Export Plug-In . SVG Version: 6.00 Build 0)  -->
<!DOCTYPE svg PUBLIC "-//W3C//DTD SVG 1.1//EN" "http://www.w3.org/Graphics/SVG/1.1/DTD/svg11.dtd">
<svg version="1.1" id="Layer_1" xmlns="http://www.w3.org/2000/svg" xmlns:xlink="http://www.w3.org/1999/xlink" x="0px" y="0px"
	 width="13px" height="56.7px" viewBox="0 0 13 56.7" enable-background="new 0 0 13 56.7" xml:space="preserve">
<path fill-rule="evenodd" clip-rule="evenodd" fill="#FFF2C2" d="M13,50.2c0,3.6-2.9,6.5-6.5,6.5l0,0c-3.6,0-6.5-2.9-6.5-6.5V25.5
	C0,21.9,2.9,19,6.5,19l0,0c3.6,0,6.5,2.9,6.5,6.5V50.2z"/>
<path fill-rule="evenodd" clip-rule="evenodd" fill="#FFF2C2" d="M13,6.5c0,3.6-2.9,6.5-6.5,6.5l0,0C2.9,13,0,10.1,0,6.5l0,0
	C0,2.9,2.9,0,6.5,0l0,0C10.1,0,13,2.9,13,6.5L13,6.5z"/>
</svg>
