<?xml version="1.0" encoding="utf-8"?>
<!-- Generator: Adobe Illustrator 17.0.1, SVG Export Plug-In . SVG Version: 6.00 Build 0)  -->
<!DOCTYPE svg PUBLIC "-//W3C//DTD SVG 1.1//EN" "http://www.w3.org/Graphics/SVG/1.1/DTD/svg11.dtd">
<svg version="1.1" id="Layer_1" xmlns="http://www.w3.org/2000/svg" xmlns:xlink="http://www.w3.org/1999/xlink" x="0px" y="0px"
	 width="512.7px" height="396px" viewBox="0 0 512.7 396" enable-background="new 0 0 512.7 396" xml:space="preserve">
<circle fill="#D74627" cx="256.6" cy="198" r="198"/>
<circle fill="#FFF1C3" cx="256.6" cy="198" r="168"/>
<g>
	<polygon fill="#D74627" points="441.1,165.9 441.1,230.1 451.5,230.1 512.7,165.9 	"/>
	<polygon fill="#D74627" points="71.5,230.1 71.5,165.9 61.2,165.9 0,230.1 	"/>
</g>
<g>
	<path fill="#D74627" d="M171.6,174.5c0-2.3,1.8-4.1,4.1-4.1h3.2c2.2,0,4.1,1.8,4.1,4.1v1.5c0,5.5,1,8.1,2.6,9.5
		c1.3,1.3,3.2,1.5,4.8,1.5c4.8,0,7.4-2.1,7.4-8.1c0-5.4-5.3-9.6-10.9-13.9v0.1c-7.5-5.9-15.4-12.1-15.4-23.4
		c0-12.9,6.7-20.3,18.9-20.3c12.3,0,18.9,7.9,18.9,22.4v1.6c0,2.3-1.8,4.1-4.1,4.1H202c-2.3,0-4.1-1.8-4.1-4.1v-1.6
		c0-7.5-2.4-11-7.4-11c-4.8,0-7.4,2.6-7.4,8.6c0,5.8,5.6,10.3,11.2,14.6h-0.1c7.5,5.8,15.2,11.7,15.2,22.7
		c0,12.8-6.7,19.7-18.9,19.7c-12.6,0-18.9-7.3-18.9-22.3V174.5z"/>
	<path fill="#D74627" d="M239.7,177.4h-11.7l-4,17.8c-0.5,1.7-2.3,3.2-4,3.2h-3.3c-2.7,0-4.6-2.3-4-4.9l5.5-24.2l10.4-44.7
		c0.5-1.7,2.3-3.2,4-3.2h2.5c1.7,0,3.7,1.5,4,3.2l15.8,68.8c0.6,2.6-1.3,5-4,5h-3.3c-1.7,0-3.5-1.5-4-3.2L239.7,177.4z M230.7,166.1
		h6.4c-1.3-5.5-1-8.6-3.2-18.3L230.7,166.1z"/>
	<path fill="#D74627" d="M272.6,168l10.2-43.5c0.3-1.7,2.3-3.2,4-3.2h3.3c2.7,0,4.6,2.4,4,5l-16.2,68.8c-0.5,1.8-2.3,3.2-4,3.2h-2.4
		c-1.8,0-3.7-1.4-4-3.2l-16.2-68.8c-0.7-2.6,1.1-5,4-5h3.2c1.7,0,3.5,1.5,4,3.2L272.6,168z"/>
	<path fill="#D74627" d="M329.3,121.4c2.3,0,4.1,1.8,4.1,4.1v3.1c0,2.3-1.8,4.1-4.1,4.1h-17.5v21.5h14.4c2.3,0,4.1,1.8,4.1,4.1v3.1
		c0,2.3-1.8,4.1-4.1,4.1h-14.4v21.6h17.5c2.3,0,4.1,1.8,4.1,4.1v3.1c0,2.3-1.8,4.1-4.1,4.1h-24.7c-2.3,0-4.1-1.8-4.1-4.1v-68.8
		c0-2.3,1.8-4.1,4.1-4.1H329.3z"/>
	<path fill="#0A3844" d="M193.6,254.6h-9.2l-3.2,14.1c-0.4,1.4-1.8,2.5-3.2,2.5h-2.6c-2.2,0-3.6-1.8-3.2-3.9l4.3-19.2l8.2-35.4
		c0.4-1.4,1.8-2.5,3.2-2.5h2c1.4,0,2.9,1.2,3.2,2.5l12.5,54.4c0.5,2.1-1,4-3.2,4h-2.6c-1.4,0-2.8-1.2-3.2-2.5L193.6,254.6z
		 M186.4,245.7h5.1c-1-4.3-0.8-6.8-2.5-14.5L186.4,245.7z"/>
	<path fill="#0A3844" d="M256.2,268c0,1.8-1.4,3.3-3.3,3.3h-19.3c-1.8,0-3.3-1.4-3.3-3.3v-54.4c0-1.8,1.4-3.3,3.3-3.3h2.6
		c1.7,0,3.2,1.4,3.2,3.3v48.7h13.5c1.8,0,3.3,1.4,3.3,3.3V268z"/>
	<path fill="#0A3844" d="M270,268c0,1.8-1.5,3.3-3.3,3.3h-2.5c-1.8,0-3.3-1.4-3.3-3.3v-54.4c0-1.8,1.4-3.3,3.3-3.3h2.5
		c1.7,0,3.3,1.4,3.3,3.3V268z"/>
	<path fill="#0A3844" d="M298.6,210.3c1.8,0,3.3,1.4,3.3,3.3v2.4c0,1.8-1.4,3.3-3.3,3.3h-13.7v17H295c1.8,0,3.3,1.4,3.3,3.3v2.4
		c0,1.8-1.4,3.3-3.3,3.3h-10.1V268c0,1.8-1.5,3.3-3.3,3.3H279c-1.8,0-3.3-1.4-3.3-3.3v-54.4c0-1.8,1.4-3.3,3.3-3.3H298.6z"/>
	<path fill="#0A3844" d="M331.2,210.3c1.8,0,3.3,1.4,3.3,3.3v2.4c0,1.8-1.4,3.3-3.3,3.3h-13.8v17h11.4c1.8,0,3.3,1.4,3.3,3.3v2.4
		c0,1.8-1.4,3.3-3.3,3.3h-11.4v17.1h13.8c1.8,0,3.3,1.4,3.3,3.3v2.4c0,1.8-1.4,3.3-3.3,3.3h-19.5c-1.8,0-3.3-1.4-3.3-3.3v-54.4
		c0-1.8,1.4-3.3,3.3-3.3H331.2z"/>
</g>
</svg>
