<?xml version="1.0" encoding="utf-8"?>
<!-- Generator: Adobe Illustrator 17.0.1, SVG Export Plug-In . SVG Version: 6.00 Build 0)  -->
<!DOCTYPE svg PUBLIC "-//W3C//DTD SVG 1.1//EN" "http://www.w3.org/Graphics/SVG/1.1/DTD/svg11.dtd">
<svg version="1.1" id="Layer_1" xmlns="http://www.w3.org/2000/svg" xmlns:xlink="http://www.w3.org/1999/xlink" x="0px" y="0px"
	 width="59.7px" height="53.9px" viewBox="0 0 59.7 53.9" enable-background="new 0 0 59.7 53.9" xml:space="preserve">
<g>
	<path fill-rule="evenodd" clip-rule="evenodd" fill="#FFF1C2" d="M44.5,17.8c-3.2-1.4-6-3.2-8.3-5.6c1.6-2.2,3.5-4.3,5.1-6.6
		c0.5-0.8,1.2-1.5,1.6-2.3c0.7-1.2,0.9-3.2,2.6-3.4c1.3-0.1,2,1.5,1.9,2.8c0,0.6-0.6,1.6-0.4,2.3c0.1,0.3,1.1,0.9,1.4,1.2
		c1,0.8,1.8,1.7,2.6,2.6c0.4,0.4,0.8,1.1,1.4,1.4c0.4,0.2,1,0.3,1.7,0.4c1.2,0.2,2.4,0.2,2.6,1.4c0.1,0.4,0,0.9-0.1,1.3
		c-0.6,2.2-2.1,4.2-5.3,4c-1.3-0.1-2.2-0.6-3.1-1c-0.2-0.1-0.6-0.4-1-0.4c-0.5,0-1,0.6-1.4,0.9C45.3,17.1,44.9,17.5,44.5,17.8z"/>
	<path fill-rule="evenodd" clip-rule="evenodd" fill="#FFF1C2" d="M0,11.9c0-0.5,0-0.9,0-1.4c0.1-0.4,0.2-1,0.5-1.1
		c0.2-0.1,0.8-0.1,1.2,0c0.6,0.2,0.9,1.1,1.2,1.9c0.2,0.7,0.4,1.6,0.6,2.5c0.3,1.3,0.7,4,1.8,4.4c0.5,0.2,1.6,0,2.4,0
		c0.9,0,1.8,0,2.6,0c3.5,0,6.8,0.1,10.2,0.1c1.7,0,3.4,0.2,5.1,0c0,0,0.1,0,0.1,0c1.8-0.5,3.6-0.8,5-1.6c1.5-0.8,2.7-1.8,4-2.6
		c2.3,2.4,5.1,4.3,8.5,5.6c0.3,2.3,0.6,5,0.3,7.5c-0.3,2.3-1,4.5-1.4,6.6c-0.7,3.2-1.3,6.8-1.1,10.9c0,1-0.1,2.9,0.4,3.6
		c0.7,1.1,3.1,0.5,2.7,2.6c-0.2,1.2-1.7,1.3-3,1.3c-0.8,0-1.5-0.1-2-0.3c-2.1-1-1.5-4.7-1.7-7.7c-0.1-2.6-0.2-4.6-0.3-6.8
		c-0.5,2.2-1,4.7-1.5,7c-0.2,1.1-0.5,2.1-0.3,3c0.3,1.2,2,1.3,2.1,2.6c0.1,2.1-3.6,2.2-5.1,1.3c-1.5-0.9-1.1-2.9-0.9-5.1
		c0.2-2.2,0.4-4.4,0.7-6.4c0.3-2,0.5-3.9-0.4-5.1c-4-1-8-2.2-11.4-3.8c-0.4-0.2-1.1-0.7-1.5-0.7c-0.4,0-1.1,0.2-1.7,0.2
		c-0.7,0.1-1.3,0.1-1.7,0.4c-0.6,0.5-0.4,1.7-0.6,2.7c-0.1,0.8-0.2,1.8-0.4,2.5c-0.3,1.1-0.9,2.3-1.4,3.5c-0.2,0.6-0.4,1.2-0.7,1.8
		c-0.2,0.6-0.6,1.2-0.7,1.8c-0.1,0.7,0.1,1.6,0.3,2.1c0.4,1,1.2,2.4,1.7,3.4c0.5,0.9,1,3.5-0.3,3.9c-0.7,0.2-1.2-0.2-1.9-0.5
		c-0.8-0.3-1.4-0.5-1.8-0.8c-1.2-1-1.7-3.2-2.2-4.9c-0.2-0.9-0.5-1.9-0.5-2.9c0-1.2,0-2.3,0-3.5c-0.9,0.5-1,1.8-1.1,2.8
		c-0.2,1.1-0.2,2.4-0.2,3.7c0,1.3,0.3,2.3,0.6,3.3c0.3,0.8,1,2.2,0.8,3c-0.2,0.9-1.8,1.2-3.1,0.9c-1.2-0.3-2-1.7-2.5-2.8
		c-1-2.5-1.5-6.2-0.7-9.1c0.4-1.3,1.2-2.4,1.6-3.8c0.4-1.6-0.2-2.9-0.7-4.3c-0.4-1.3-0.8-2.9-0.9-4.4c-0.5-3.5,0.5-6.5,2-8.4
		C0.9,18.8,0.5,15.3,0,11.9z"/>
</g>
<path fill-rule="evenodd" clip-rule="evenodd" fill="#FFF1C2" d="M54.8,20.8c-0.4,0.4-1.1,0.4-1.5,0l0,0c-0.4-0.4-0.4-1.1,0-1.5
	l4.2-4.2c0.4-0.4,1.1-0.4,1.5,0l0,0c0.4,0.4,0.4,1.1,0,1.5L54.8,20.8z"/>
<path fill-rule="evenodd" clip-rule="evenodd" fill="none" stroke="#FFF1C2" stroke-width="0.75" stroke-miterlimit="10" d="
	M58.4,20.7c-0.4,0.4-1.1,0.4-1.6,0l-0.9-0.9c-0.4-0.4-0.4-1.2,0-1.6l0.6-0.6c0.4-0.4,1.1-0.4,1.6,0l0.9,0.9c0.4,0.4,0.4,1.1,0,1.6
	L58.4,20.7z"/>
</svg>
