<?xml version="1.0" encoding="utf-8"?>
<!-- Generator: Adobe Illustrator 17.0.1, SVG Export Plug-In . SVG Version: 6.00 Build 0)  -->
<!DOCTYPE svg PUBLIC "-//W3C//DTD SVG 1.1//EN" "http://www.w3.org/Graphics/SVG/1.1/DTD/svg11.dtd">
<svg version="1.1" id="Layer_1" xmlns="http://www.w3.org/2000/svg" xmlns:xlink="http://www.w3.org/1999/xlink" x="0px" y="0px"
	 width="38.8px" height="36.9px" viewBox="0 0 38.8 36.9" enable-background="new 0 0 38.8 36.9" xml:space="preserve">
<g>
	<path fill-rule="evenodd" clip-rule="evenodd" fill="#FFF1C2" d="M30.4,12.2c-2.2-1-4.1-2.2-5.7-3.8c1.1-1.5,2.4-2.9,3.5-4.5
		c0.4-0.5,0.8-1,1.1-1.6C29.8,1.5,30,0.1,31.1,0c0.9-0.1,1.4,1,1.3,1.9c0,0.4-0.4,1.1-0.3,1.6c0.1,0.2,0.7,0.6,1,0.8
		c0.7,0.6,1.2,1.2,1.8,1.8c0.3,0.3,0.6,0.7,0.9,0.9c0.3,0.2,0.7,0.2,1.1,0.3c0.8,0.1,1.6,0.2,1.7,0.9c0,0.3,0,0.6-0.1,0.9
		c-0.4,1.5-1.4,2.9-3.6,2.7c-0.9-0.1-1.5-0.4-2.1-0.7c-0.1-0.1-0.4-0.3-0.7-0.3c-0.3,0-0.7,0.4-1,0.6C31,11.7,30.7,11.9,30.4,12.2z"
		/>
	<path fill-rule="evenodd" clip-rule="evenodd" fill="#FFF1C2" d="M0,8.1c0-0.3,0-0.6,0-0.9c0.1-0.3,0.1-0.7,0.4-0.8
		c0.1-0.1,0.6-0.1,0.8,0C1.6,6.5,1.8,7.1,2,7.7c0.1,0.5,0.3,1.1,0.4,1.7c0.2,0.9,0.5,2.8,1.2,3c0.3,0.1,1.1,0,1.6,0
		c0.6,0,1.2,0,1.7,0c2.4,0,4.6,0.1,6.9,0.1c1.2,0,2.3,0.2,3.5,0c0,0,0,0,0.1,0c1.2-0.3,2.4-0.6,3.4-1.1c1-0.6,1.8-1.2,2.7-1.7
		c1.6,1.6,3.5,2.9,5.8,3.8c0.2,1.6,0.4,3.4,0.2,5.1c-0.2,1.5-0.7,3.1-1,4.5c-0.5,2.2-0.9,4.6-0.8,7.4c0,0.7-0.1,2,0.3,2.5
		c0.5,0.7,2.1,0.3,1.8,1.8c-0.1,0.8-1.2,0.9-2.1,0.9c-0.5,0-1-0.1-1.4-0.2c-1.5-0.7-1-3.2-1.1-5.2c-0.1-1.7-0.1-3.1-0.2-4.6
		c-0.3,1.5-0.7,3.2-1,4.8c-0.2,0.8-0.4,1.4-0.2,2.1c0.2,0.8,1.4,0.9,1.4,1.8c0,1.5-2.5,1.5-3.5,0.9c-1.1-0.6-0.8-2-0.6-3.5
		c0.2-1.5,0.3-3,0.5-4.4c0.2-1.3,0.4-2.6-0.3-3.5c-2.7-0.7-5.5-1.5-7.8-2.6c-0.3-0.1-0.8-0.5-1-0.5c-0.3,0-0.8,0.1-1.2,0.2
		c-0.5,0.1-0.9,0.1-1.1,0.3C10,21.5,10.1,22.3,10,23c-0.1,0.6-0.1,1.2-0.3,1.7c-0.2,0.7-0.6,1.6-0.9,2.4c-0.2,0.4-0.3,0.8-0.5,1.2
		c-0.2,0.4-0.4,0.8-0.5,1.2C7.9,30,8,30.6,8.1,31c0.3,0.7,0.8,1.7,1.2,2.4c0.3,0.6,0.7,2.4-0.2,2.6c-0.4,0.1-0.8-0.1-1.3-0.3
		c-0.5-0.2-1-0.3-1.2-0.5c-0.8-0.7-1.2-2.2-1.5-3.3c-0.2-0.6-0.3-1.3-0.3-2c0-0.8,0-1.6,0-2.4c-0.6,0.4-0.7,1.2-0.8,1.9
		c-0.1,0.8-0.2,1.7-0.2,2.6c0,0.9,0.2,1.6,0.4,2.3c0.2,0.6,0.7,1.5,0.6,2.1c-0.1,0.6-1.2,0.8-2.1,0.6c-0.8-0.2-1.4-1.2-1.7-1.9
		c-0.7-1.7-1.1-4.2-0.5-6.2c0.3-0.9,0.8-1.7,1.1-2.6c0.3-1.1-0.1-2-0.5-3c-0.3-0.9-0.5-2-0.6-3c-0.3-2.4,0.3-4.4,1.4-5.8
		C0.6,12.9,0.3,10.5,0,8.1z"/>
</g>
</svg>
