<?xml version="1.0" encoding="utf-8"?>
<!-- Generator: Adobe Illustrator 17.0.1, SVG Export Plug-In . SVG Version: 6.00 Build 0)  -->
<!DOCTYPE svg PUBLIC "-//W3C//DTD SVG 1.1//EN" "http://www.w3.org/Graphics/SVG/1.1/DTD/svg11.dtd">
<svg version="1.1" id="Layer_1" xmlns="http://www.w3.org/2000/svg" xmlns:xlink="http://www.w3.org/1999/xlink" x="0px" y="0px"
	 width="74.9px" height="71.3px" viewBox="0 0 74.9 71.3" enable-background="new 0 0 74.9 71.3" xml:space="preserve">
<g>
	<path fill-rule="evenodd" clip-rule="evenodd" fill="#FFF1C2" d="M58.8,23.5c-4.2-1.9-8-4.2-10.9-7.4c2.1-3,4.6-5.7,6.8-8.7
		c0.7-1,1.6-2,2.1-3C57.7,2.8,58,0.2,60.2,0c1.7-0.2,2.7,1.9,2.6,3.7c-0.1,0.9-0.7,2.1-0.5,3c0.1,0.4,1.4,1.2,1.9,1.6
		c1.3,1.1,2.4,2.3,3.4,3.4c0.5,0.6,1.1,1.4,1.8,1.8c0.6,0.3,1.4,0.5,2.2,0.6c1.6,0.2,3.1,0.3,3.4,1.8c0.1,0.6,0,1.1-0.2,1.7
		c-0.8,2.9-2.7,5.5-7,5.2c-1.7-0.1-2.9-0.7-4.1-1.4c-0.3-0.1-0.7-0.5-1.3-0.5c-0.7,0-1.4,0.7-1.9,1.1C59.8,22.6,59.3,23.1,58.8,23.5
		z"/>
	<path fill-rule="evenodd" clip-rule="evenodd" fill="#FFF1C2" d="M0,15.7c0-0.6,0-1.2,0-1.8c0.1-0.6,0.2-1.3,0.7-1.5
		c0.3-0.1,1.1-0.2,1.6-0.1c0.8,0.2,1.2,1.5,1.6,2.5c0.3,0.9,0.5,2.1,0.7,3.3C5,19.8,5.5,23.5,7,23.9c0.7,0.2,2.1,0,3.2,0.1
		c1.2,0,2.4,0,3.4,0c4.7,0,9,0.1,13.4,0.1c2.2,0,4.5,0.3,6.7,0.1c0,0,0.1,0,0.1,0c2.3-0.6,4.7-1.1,6.6-2.1c1.9-1.1,3.5-2.3,5.3-3.4
		c3.1,3.2,6.8,5.7,11.3,7.4c0.4,3.1,0.8,6.5,0.4,9.9c-0.3,3-1.3,5.9-1.9,8.7c-0.9,4.2-1.7,8.9-1.5,14.4c0,1.4-0.1,3.8,0.5,4.8
		c0.9,1.4,4.1,0.7,3.6,3.5c-0.3,1.6-2.2,1.7-4,1.7c-1,0-1.9-0.1-2.6-0.4c-2.8-1.3-2-6.2-2.2-10.1c-0.2-3.4-0.2-6.1-0.4-8.9
		c-0.7,2.9-1.3,6.2-2,9.2c-0.3,1.5-0.7,2.7-0.4,4c0.4,1.6,2.7,1.7,2.7,3.4c0.1,2.8-4.8,2.9-6.8,1.7c-2-1.2-1.5-3.9-1.2-6.7
		c0.3-2.9,0.6-5.8,0.9-8.4c0.4-2.6,0.7-5.1-0.6-6.7c-5.2-1.3-10.6-3-15-5.1c-0.6-0.3-1.5-0.9-1.9-0.9c-0.6-0.1-1.5,0.2-2.3,0.3
		c-0.9,0.1-1.7,0.1-2.2,0.5c-0.8,0.6-0.6,2.2-0.7,3.6c-0.1,1.1-0.3,2.4-0.5,3.3c-0.4,1.4-1.2,3.1-1.8,4.6c-0.3,0.8-0.6,1.6-0.9,2.4
		c-0.3,0.8-0.8,1.6-0.9,2.4c-0.1,0.9,0.1,2.1,0.4,2.7c0.5,1.4,1.6,3.2,2.3,4.6c0.6,1.1,1.4,4.6-0.4,5.1c-0.9,0.3-1.6-0.2-2.6-0.6
		c-1-0.4-1.9-0.7-2.4-1.1c-1.5-1.3-2.3-4.2-2.9-6.4c-0.3-1.2-0.7-2.5-0.6-3.9c0.1-1.6,0-3.1-0.1-4.6c-1.1,0.7-1.3,2.3-1.5,3.7
		c-0.2,1.5-0.3,3.2-0.3,4.9c0,1.7,0.4,3.1,0.8,4.4c0.3,1.1,1.4,2.9,1.1,4C9,71,6.8,71.5,5.2,71.1c-1.6-0.4-2.7-2.3-3.2-3.7
		c-1.3-3.3-2-8.1-0.9-12c0.5-1.8,1.6-3.2,2.1-5c0.5-2.1-0.2-3.9-0.9-5.7c-0.6-1.7-1-3.9-1.2-5.8c-0.6-4.7,0.6-8.6,2.6-11.1
		C1.2,24.9,0.6,20.3,0,15.7z"/>
</g>
</svg>
