<?xml version="1.0" encoding="utf-8"?>
<!-- Generator: Adobe Illustrator 17.0.1, SVG Export Plug-In . SVG Version: 6.00 Build 0)  -->
<!DOCTYPE svg PUBLIC "-//W3C//DTD SVG 1.1//EN" "http://www.w3.org/Graphics/SVG/1.1/DTD/svg11.dtd">
<svg version="1.1" id="Layer_1" xmlns="http://www.w3.org/2000/svg" xmlns:xlink="http://www.w3.org/1999/xlink" x="0px" y="0px"
	 width="61.1px" height="33.7px" viewBox="0 0 61.1 33.7" enable-background="new 0 0 61.1 33.7" xml:space="preserve">
<path fill-rule="evenodd" clip-rule="evenodd" fill="#FFF1C2" d="M13.6,21.7c0.7,3,1,6,0.5,8.9c-2.5,0.1-4.9-0.2-7.5-0.1
	c-0.8,0-1.7-0.1-2.5,0.1c-1.2,0.2-2.7,1.1-3.8,0c-0.8-0.8,0-2.2,1-2.9c0.5-0.3,1.5-0.5,1.8-1c0.2-0.2,0.1-1.3,0.1-1.7
	c0.1-1.1,0.3-2.2,0.5-3.3C3.8,21.2,4,20.6,3.9,20c-0.1-0.4-0.3-0.9-0.6-1.4c-0.5-0.9-1.1-1.8-0.4-2.6c0.3-0.3,0.6-0.5,1-0.6
	c1.9-0.7,4.1-0.8,5.7,1.6c0.6,1,0.8,1.9,0.9,2.8c0,0.2,0,0.6,0.3,0.9c0.3,0.3,1,0.4,1.4,0.6C12.7,21.5,13.1,21.6,13.6,21.7z"/>
<path fill-rule="evenodd" clip-rule="evenodd" fill="#FFF1C2" d="M61.1,31.3v1.2c-0.1,0.4-0.1,0.9-0.5,1c-0.2,0.1-0.7,0.1-1.1,0.1
	c-0.5-0.1-0.3-1.6-1.1-1.7c-1.1-0.2-3,0.2-3.9,0.2c-1.1,0-3.7,0.2-4.7-0.1c-0.5-0.2-1.5,0-2.2-0.1c-0.8,0-1.6,0-2.3,0
	c-2.4,0-4.6,0-6.8-0.1h-0.2c-5.2-0.1-22.4-1.3-22.4-1.3c-0.3-2.1-0.5-4.4-0.3-6.7c0.2-2,0.9-4,1.3-5.9c0.6-2.8,1.1-6,1-9.7
	c0-0.9,0.1-2.6-0.3-3.3c-0.6-1-2.7-0.4-2.4-2.4c0.2-1.1,1.5-1.1,2.7-1.1c0.7,0,1.3,0.1,1.8,0.3c1.9,0.8,1.4,4.2,1.5,6.8
	c0.1,2.3,0.1,4.1,0.3,6c0.4-1.9,0.9-4.2,1.4-6.3c0.2-1,0.5-1.9,0.3-2.7c-0.3-1.1-1.8-1.2-1.9-2.3c-0.1-1.9,3.3-2,4.6-1.1
	c1.4,0.8,1,2.6,0.8,4.6c-0.2,2-0.4,3.9-0.6,5.7c-0.3,1.8-0.5,3.5,0.4,4.5c3.5,0.9,7.2,2,10.2,3.4c0.4,0.2,1,0.6,1.3,0.6
	c0.4,0,1-0.1,1.6-0.2c0.6-0.1,1.2-0.1,1.5-0.3c0.6-0.4,0.4-1.5,0.5-2.5c0.1-0.7,0.2-1.6,0.3-2.2c0.2-0.9,0.8-2.1,1.2-3.1
	c0.2-0.5,0.4-1.1,0.6-1.6c0.2-0.6,0.5-1.1,0.6-1.6c0.1-0.6-0.1-1.4-0.3-1.9c-0.3-0.9-1.1-2.2-1.6-3.1c-0.4-0.8-0.9-3.1,0.3-3.5
	c0.6-0.2,1.1,0.2,1.7,0.4c0.7,0.3,1.3,0.4,1.6,0.7c1,0.9,1.6,2.8,1.9,4.3c0.2,0.8,0.5,1.7,0.4,2.6c0,1.1,0,2.1,0,3.1
	c0.8-0.5,0.9-1.6,1-2.5c0.1-1,0.2-2.2,0.2-3.3c0-1.2-0.3-2.1-0.5-3c-0.2-0.7-0.9-2-0.8-2.7c0.2-0.8,1.6-1.1,2.7-0.8
	c1.1,0.3,1.8,1.5,2.2,2.5c0.9,2.2,1.4,5.5,0.6,8.1c-0.4,1.2-1.1,2.2-1.4,3.4c-0.3,1.4,0.2,2.6,0.6,3.9c0.4,1.2,0.7,2.6,0.8,3.9
	c0.4,3.2-0.4,5.8-1.8,7.5C53.8,31.4,60.7,28.2,61.1,31.3z"/>
</svg>
