<?xml version="1.0" encoding="utf-8"?>
<!-- Generator: Adobe Illustrator 17.0.1, SVG Export Plug-In . SVG Version: 6.00 Build 0)  -->
<!DOCTYPE svg PUBLIC "-//W3C//DTD SVG 1.1//EN" "http://www.w3.org/Graphics/SVG/1.1/DTD/svg11.dtd">
<svg version="1.1" id="Layer_1" xmlns="http://www.w3.org/2000/svg" xmlns:xlink="http://www.w3.org/1999/xlink" x="0px" y="0px"
	 width="55.3px" height="62.2px" viewBox="0 0 55.3 62.2" enable-background="new 0 0 55.3 62.2" xml:space="preserve">
<g>
	<path fill="#FFF2C2" d="M21.2,35.5c0-3.6-2.9-6.5-6.5-6.5l0,0c-3.6,0-6.5,2.9-6.5,6.5v20.2c0,3.6,2.9,6.5,6.5,6.5l0,0
		c3.6,0,6.5-2.9,6.5-6.5V35.5z"/>
	<path fill="#FFF2C2" d="M8.2,23v28.8h13V48c0-3.6,2.9-6.5,6.5-6.5c3.6,0,6.5,2.9,6.5,6.5v3.9h13V23H8.2z"/>
	<path fill="#FFF2C2" d="M47.1,35.5c0-3.6-2.9-6.5-6.5-6.5l0,0c-3.6,0-6.5,2.9-6.5,6.5v20.2c0,3.6,2.9,6.5,6.5,6.5l0,0
		c3.6,0,6.5-2.9,6.5-6.5V35.5z"/>
	<polygon fill="#FFF2C2" stroke="#FBF2D7" stroke-width="8" stroke-linecap="round" stroke-linejoin="round" points="4,24.5 27.7,4 
		51.3,24.5 	"/>
</g>
</svg>
