<?xml version="1.0" encoding="utf-8"?>
<!-- Generator: Adobe Illustrator 17.0.1, SVG Export Plug-In . SVG Version: 6.00 Build 0)  -->
<!DOCTYPE svg PUBLIC "-//W3C//DTD SVG 1.1//EN" "http://www.w3.org/Graphics/SVG/1.1/DTD/svg11.dtd">
<svg version="1.1" id="Layer_1" xmlns="http://www.w3.org/2000/svg" xmlns:xlink="http://www.w3.org/1999/xlink" x="0px" y="0px"
	 width="50.7px" height="50.6px" viewBox="0 0 50.7 50.6" enable-background="new 0 0 50.7 50.6" xml:space="preserve">
<g>
	<path fill-rule="evenodd" clip-rule="evenodd" fill="#FFF1C3" d="M11.4,38.5c1.7,3,2.4,6.3,2.5,9.5c-7.3-3.7-12.5-10.7-13.7-19
		C4.5,30.9,8.9,34,11.4,38.5z"/>
	<path fill-rule="evenodd" clip-rule="evenodd" fill="#FFF1C3" d="M46.3,39.6c-4.6,6.7-12.2,11-20.9,11c-2.4,0-4.8-0.3-7-1
		c0.1-4.3-0.6-9-3.1-13.4C11.8,30.1,5.5,26.2,0,23.9C0.6,11.7,10,1.7,22,0.1c-1.6,5.2-3.7,15.5,1.3,24.4
		C28.7,34.2,40.9,38.3,46.3,39.6z"/>
	<path fill-rule="evenodd" clip-rule="evenodd" fill="#FFF1C3" d="M50.7,25.3c0,3.3-0.6,6.4-1.8,9.3c-3.3-0.7-15.9-4-20.8-12.7
		C23.5,13.6,26.6,3.3,27.8,0C40.7,1.2,50.7,12.1,50.7,25.3z"/>
</g>
</svg>
