<?xml version="1.0" encoding="utf-8"?>
<!-- Generator: Adobe Illustrator 17.0.1, SVG Export Plug-In . SVG Version: 6.00 Build 0)  -->
<!DOCTYPE svg PUBLIC "-//W3C//DTD SVG 1.1//EN" "http://www.w3.org/Graphics/SVG/1.1/DTD/svg11.dtd">
<svg version="1.1" id="Layer_1" xmlns="http://www.w3.org/2000/svg" xmlns:xlink="http://www.w3.org/1999/xlink" x="0px" y="0px"
	 width="45.3px" height="44.3px" viewBox="0 0 45.3 44.3" enable-background="new 0 0 45.3 44.3" xml:space="preserve">
<g>
	<path fill-rule="evenodd" clip-rule="evenodd" fill="#FFF1C3" d="M7.6,16.6c0.1,0.4,0.3,0.8,0.5,1.2l4.5,7.8l-1.5,5.8
		c-1.5,0.4-3.1-0.2-3.9-1.6L5.1,26L7.6,16.6z"/>
	<path fill-rule="evenodd" clip-rule="evenodd" fill="#FFF1C3" d="M6.6,3L1.9,20.6l-0.3-0.5C-1.7,14.2,0.3,6.7,6.1,3.3L6.6,3z"/>
	<path fill-rule="evenodd" clip-rule="evenodd" fill="#FFF1C3" d="M19.3,0.7l-1.9,7c-2.1-1-4.6-1-6.7,0.2c-0.4,0.2-0.7,0.5-1,0.7
		l2.2-8.3C14.4-0.2,17-0.1,19.3,0.7z"/>
	<path fill-rule="evenodd" clip-rule="evenodd" fill="#FFF1C3" d="M25.8,6.1l2.9,5l-2.5,9.3L21,11.5l2.3-8.4C24.3,4,25.1,5,25.8,6.1
		z"/>
	<polygon fill-rule="evenodd" clip-rule="evenodd" fill="#FFF1C3" points="29.3,25.8 31.8,16.6 36.9,25.4 34.4,34.7 	"/>
	<path fill-rule="evenodd" clip-rule="evenodd" fill="#FFF1C3" d="M37.5,40.1l2.5-9.3l4.8,8.4c0.9,1.6,0.4,3.7-1.2,4.6
		c-1.6,0.9-3.7,0.4-4.6-1.2c0,0,0,0,0,0L37.5,40.1z"/>
</g>
</svg>
