<?xml version="1.0" encoding="utf-8"?>
<!-- Generator: Adobe Illustrator 17.0.1, SVG Export Plug-In . SVG Version: 6.00 Build 0)  -->
<!DOCTYPE svg PUBLIC "-//W3C//DTD SVG 1.1//EN" "http://www.w3.org/Graphics/SVG/1.1/DTD/svg11.dtd">
<svg version="1.1" id="Layer_1" xmlns="http://www.w3.org/2000/svg" xmlns:xlink="http://www.w3.org/1999/xlink" x="0px" y="0px"
	 width="53.5px" height="68.5px" viewBox="0 0 53.5 68.5" enable-background="new 0 0 53.5 68.5" xml:space="preserve">
<g>
	<path fill-rule="evenodd" clip-rule="evenodd" fill="#FFF1C3" d="M42,34.4c-3-1.3-5.7-3-7.8-5.3c1.5-2.1,3.3-4,4.9-6.2
		c0.5-0.7,1.1-1.4,1.5-2.1c0.6-1.2,0.8-3,2.4-3.2c1.2-0.1,1.9,1.4,1.8,2.6c0,0.6-0.5,1.5-0.4,2.1c0.1,0.3,1,0.9,1.3,1.2
		c0.9,0.8,1.7,1.6,2.5,2.5c0.4,0.4,0.8,1,1.3,1.3c0.4,0.2,1,0.3,1.6,0.4c1.1,0.2,2.2,0.2,2.4,1.3c0.1,0.4,0,0.8-0.1,1.2
		c-0.6,2.1-1.9,4-5,3.7c-1.2-0.1-2.1-0.5-2.9-1c-0.2-0.1-0.5-0.4-0.9-0.4c-0.5,0-1,0.5-1.3,0.8C42.7,33.8,42.4,34.1,42,34.4z"/>
	<path fill-rule="evenodd" clip-rule="evenodd" fill="#FFF1C3" d="M0,28.8c0-0.4,0-0.9,0-1.3c0.1-0.4,0.2-0.9,0.5-1.1
		c0.2-0.1,0.8-0.1,1.2,0c0.6,0.1,0.9,1,1.1,1.8c0.2,0.7,0.4,1.5,0.5,2.4c0.3,1.2,0.6,3.8,1.7,4.1c0.5,0.2,1.5,0,2.3,0
		c0.8,0,1.7,0,2.4,0c3.3,0,6.4,0.1,9.6,0.1c1.6,0,3.2,0.2,4.8,0c0,0,0.1,0,0.1,0c1.7-0.5,3.4-0.8,4.7-1.5c1.4-0.8,2.5-1.7,3.8-2.4
		c2.2,2.3,4.9,4,8.1,5.3c0.3,2.2,0.5,4.7,0.3,7.1c-0.2,2.1-0.9,4.2-1.3,6.2c-0.6,3-1.2,6.4-1.1,10.3c0,1-0.1,2.7,0.4,3.4
		c0.7,1,2.9,0.5,2.5,2.5c-0.2,1.1-1.6,1.2-2.9,1.2c-0.7,0-1.4-0.1-1.9-0.3c-2-0.9-1.4-4.4-1.6-7.2C35.1,56.9,35,55,34.9,53
		c-0.5,2-1,4.4-1.4,6.6c-0.2,1-0.5,2-0.3,2.9c0.3,1.2,1.9,1.2,2,2.5c0.1,2-3.4,2.1-4.9,1.2c-1.5-0.9-1.1-2.8-0.8-4.8
		c0.2-2.1,0.4-4.1,0.7-6c0.3-1.9,0.5-3.6-0.4-4.8c-3.7-0.9-7.6-2.1-10.7-3.6c-0.4-0.2-1.1-0.6-1.4-0.7c-0.4,0-1.1,0.1-1.6,0.2
		c-0.6,0.1-1.2,0.1-1.6,0.4c-0.6,0.4-0.4,1.6-0.5,2.6c-0.1,0.8-0.2,1.7-0.4,2.4c-0.3,1-0.9,2.2-1.3,3.3c-0.2,0.6-0.4,1.2-0.6,1.7
		c-0.2,0.6-0.6,1.2-0.6,1.7c-0.1,0.7,0.1,1.5,0.3,2c0.4,1,1.1,2.3,1.7,3.3c0.4,0.8,1,3.3-0.3,3.7c-0.6,0.2-1.2-0.2-1.8-0.4
		c-0.7-0.3-1.4-0.5-1.7-0.8c-1.1-0.9-1.6-3-2.1-4.6c-0.2-0.8-0.5-1.8-0.4-2.8c0-1.1,0-2.2,0-3.3c-0.8,0.5-0.9,1.7-1.1,2.6
		c-0.2,1.1-0.2,2.3-0.2,3.5c0,1.2,0.3,2.2,0.6,3.1c0.2,0.8,1,2.1,0.8,2.9c-0.2,0.8-1.7,1.2-2.9,0.8c-1.2-0.3-1.9-1.6-2.3-2.7
		c-0.9-2.3-1.5-5.8-0.6-8.6c0.4-1.3,1.2-2.3,1.5-3.6c0.4-1.5-0.2-2.8-0.6-4.1c-0.4-1.2-0.7-2.8-0.9-4.1c-0.4-3.3,0.4-6.1,1.9-7.9
		C0.9,35.4,0.5,32.1,0,28.8z"/>
</g>
<polygon fill-rule="evenodd" clip-rule="evenodd" fill="#FFF1C3" points="4.9,0 33.7,28.8 32.2,30.3 2.8,1 "/>
</svg>
