<?xml version="1.0" encoding="utf-8"?>
<!-- Generator: Adobe Illustrator 17.0.1, SVG Export Plug-In . SVG Version: 6.00 Build 0)  -->
<!DOCTYPE svg PUBLIC "-//W3C//DTD SVG 1.1//EN" "http://www.w3.org/Graphics/SVG/1.1/DTD/svg11.dtd">
<svg version="1.1" id="Layer_1" xmlns="http://www.w3.org/2000/svg" xmlns:xlink="http://www.w3.org/1999/xlink" x="0px" y="0px"
	 width="235.9px" height="70.5px" viewBox="0 0 235.9 70.5" enable-background="new 0 0 235.9 70.5" xml:space="preserve">
<path fill="#FFF2C2" d="M172.6,30.2c0-4.6-3.7-8.4-8.4-8.4c-4.4,0-8.1,3.5-8.3,7.8H82.7c-0.3-4.4-3.9-7.8-8.3-7.8
	c-4.6,0-8.4,3.7-8.4,8.4c0,1.9,0.6,3.6,1.7,5c-1.1,1.4-1.7,3.1-1.7,5c0,4.6,3.7,8.4,8.4,8.4c4.4,0,8.1-3.5,8.3-7.8h73.2
	c0.3,4.4,3.9,7.8,8.3,7.8c4.6,0,8.4-3.7,8.4-8.4c0-1.9-0.6-3.6-1.7-5C172,33.9,172.6,32.1,172.6,30.2z"/>
<path fill="#FFF2C2" d="M171.6,0v15.5c10.9,0,19.8,8.8,19.8,19.8c0,10.9-8.8,19.8-19.8,19.8v15.5c19.5,0,35.3-15.8,35.3-35.3
	C206.9,15.8,191.1,0,171.6,0z"/>
<path fill="#FFF2C2" d="M172,55L172,55c-4.3,0-7.8,3.5-7.8,7.8c0,4.3,3.5,7.8,7.8,7.8h0V55z"/>
<path fill="#FFF2C2" d="M67,0v15.5c-10.9,0-19.8,8.8-19.8,19.8C47.2,46.2,56.1,55,67,55v15.5c-19.5,0-35.3-15.8-35.3-35.3
	C31.7,15.8,47.5,0,67,0z"/>
<polygon fill="#FFF2C2" points="36.6,17.4 0,52.9 41.7,52.9 41.7,17.4 "/>
<polygon fill="#FFF2C2" points="196.5,17.4 196.5,52.9 202.2,52.9 235.9,17.4 "/>
</svg>
