<?xml version="1.0" encoding="utf-8"?>
<!-- Generator: Adobe Illustrator 17.0.1, SVG Export Plug-In . SVG Version: 6.00 Build 0)  -->
<!DOCTYPE svg PUBLIC "-//W3C//DTD SVG 1.1//EN" "http://www.w3.org/Graphics/SVG/1.1/DTD/svg11.dtd">
<svg version="1.1" id="Layer_1" xmlns="http://www.w3.org/2000/svg" xmlns:xlink="http://www.w3.org/1999/xlink" x="0px" y="0px"
	 width="341.4px" height="102px" viewBox="0 0 341.4 102" enable-background="new 0 0 341.4 102" xml:space="preserve">
<g>
	<path fill="#FFF2C2" d="M249.8,43.7c0-6.7-5.4-12.1-12.1-12.1c-6.4,0-11.7,5-12.1,11.3h-106c-0.4-6.3-5.7-11.3-12.1-11.3
		c-6.7,0-12.1,5.4-12.1,12.1c0,2.7,0.9,5.3,2.4,7.3c-1.5,2-2.4,4.5-2.4,7.3c0,6.7,5.4,12.1,12.1,12.1c6.4,0,11.7-5,12.1-11.3h106
		c0.4,6.3,5.7,11.3,12.1,11.3c6.7,0,12.1-5.4,12.1-12.1c0-2.7-0.9-5.3-2.4-7.3C248.9,49,249.8,46.5,249.8,43.7z"/>
	<path fill="#FFF2C2" d="M248.4,0v22.4c15.8,0,28.6,12.8,28.6,28.6c0,15.8-12.8,28.6-28.6,28.6V102c28.2,0,51-22.8,51-51
		C299.4,22.8,276.6,0,248.4,0z"/>
	<path fill="#FFF2C2" d="M249,0L249,0c-6.2,0-11.3,5-11.3,11.2s5,11.2,11.2,11.2h0V0z"/>
	<path fill="#FFF2C2" d="M249,79.6L249,79.6c-6.2,0-11.3,5-11.3,11.2c0,6.2,5,11.2,11.2,11.2h0V79.6z"/>
	<path fill="#FFF2C2" d="M96.9,0v22.4c-15.8,0-28.6,12.8-28.6,28.6c0,15.8,12.8,28.6,28.6,28.6V102c-28.2,0-51-22.8-51-51
		C45.9,22.8,68.8,0,96.9,0z"/>
	<path fill="#FFF2C2" d="M96.3,0L96.3,0c6.2,0,11.3,5,11.3,11.2s-5,11.2-11.2,11.2h0V0z"/>
	<path fill="#FFF2C2" d="M96.3,79.6L96.3,79.6c6.2,0,11.3,5,11.3,11.2c0,6.2-5,11.2-11.2,11.2h0V79.6z"/>
	<polygon fill="#FFF2C2" points="52.9,25.2 0,76.5 60.4,76.5 60.4,25.2 	"/>
	<polygon fill="#FFF2C2" points="284.3,25.2 284.3,76.5 292.6,76.5 341.4,25.2 	"/>
</g>
</svg>
