<?xml version="1.0" encoding="utf-8"?>
<!-- Generator: Adobe Illustrator 17.0.1, SVG Export Plug-In . SVG Version: 6.00 Build 0)  -->
<!DOCTYPE svg PUBLIC "-//W3C//DTD SVG 1.1//EN" "http://www.w3.org/Graphics/SVG/1.1/DTD/svg11.dtd">
<svg version="1.1" id="Layer_1" xmlns="http://www.w3.org/2000/svg" xmlns:xlink="http://www.w3.org/1999/xlink" x="0px" y="0px"
	 width="46.4px" height="62.9px" viewBox="0 0 46.4 62.9" enable-background="new 0 0 46.4 62.9" xml:space="preserve">
<g>
	<circle fill-rule="evenodd" clip-rule="evenodd" fill="#D84426" cx="31.1" cy="29.5" r="9.8"/>
	<path fill-rule="evenodd" clip-rule="evenodd" fill="#D84426" d="M46.4,52.7v10.2H16.1V52.7c0-0.4,0-0.9,0.1-1.3
		c0.6-4.2,4-7.5,8.3-7.8c0.2,0,0.4,0,0.6,0h12.1C42.4,43.6,46.4,47.7,46.4,52.7z"/>
	<path fill-rule="evenodd" clip-rule="evenodd" fill="#D84426" d="M0,47.5c0,2.2,1.7,3.9,3.9,3.9h20.2c2.2,0,3.9-1.7,3.9-3.9l0,0
		c0-2.2-1.7-3.9-3.9-3.9H3.9C1.7,43.6,0,45.4,0,47.5L0,47.5z"/>
	<path fill="#D84426" d="M11.9,3.7c0,2-1.5,3.6-3.5,3.7v55.5H3.5V7.4C1.5,7.3,0,5.7,0,3.7C0,1.7,1.7,0,3.7,0c0.8,0,1.6,0.3,2.2,0.7
		C6.6,0.3,7.3,0,8.2,0C10.2,0,11.9,1.7,11.9,3.7z"/>
</g>
</svg>
