<?xml version="1.0" encoding="utf-8"?>
<!-- Generator: Adobe Illustrator 17.0.1, SVG Export Plug-In . SVG Version: 6.00 Build 0)  -->
<!DOCTYPE svg PUBLIC "-//W3C//DTD SVG 1.1//EN" "http://www.w3.org/Graphics/SVG/1.1/DTD/svg11.dtd">
<svg version="1.1" id="Layer_1" xmlns="http://www.w3.org/2000/svg" xmlns:xlink="http://www.w3.org/1999/xlink" x="0px" y="0px"
	 width="43.1px" height="43px" viewBox="0 0 43.1 43" enable-background="new 0 0 43.1 43" xml:space="preserve">
<g>
	<path fill-rule="evenodd" clip-rule="evenodd" fill="#D74627" d="M9.7,32.6c1.4,2.6,2,5.4,2.1,8C5.7,37.6,1.2,31.6,0.2,24.5
		C3.8,26.2,7.6,28.9,9.7,32.6z"/>
	<path fill-rule="evenodd" clip-rule="evenodd" fill="#D74627" d="M39.3,33.6C35.4,39.3,28.9,43,21.5,43c-2.1,0-4-0.3-5.9-0.8
		c0.1-3.6-0.5-7.6-2.6-11.3c-3-5.3-8.4-8.6-13-10.5C0.5,9.9,8.5,1.4,18.6,0.1c-1.4,4.4-3.1,13.1,1.1,20.7
		C24.4,29,34.7,32.5,39.3,33.6z"/>
	<path fill-rule="evenodd" clip-rule="evenodd" fill="#D74627" d="M43.1,21.4c0,2.8-0.5,5.5-1.5,7.9c-2.8-0.6-13.5-3.4-17.7-10.8
		C20,11.5,22.6,2.8,23.6,0C34.5,1.1,43.1,10.3,43.1,21.4z"/>
</g>
</svg>
