<?xml version="1.0" encoding="utf-8"?>
<!-- Generator: Adobe Illustrator 17.0.1, SVG Export Plug-In . SVG Version: 6.00 Build 0)  -->
<!DOCTYPE svg PUBLIC "-//W3C//DTD SVG 1.1//EN" "http://www.w3.org/Graphics/SVG/1.1/DTD/svg11.dtd">
<svg version="1.1" id="Layer_1" xmlns="http://www.w3.org/2000/svg" xmlns:xlink="http://www.w3.org/1999/xlink" x="0px" y="0px"
	 width="47.7px" height="46.6px" viewBox="0 0 47.7 46.6" enable-background="new 0 0 47.7 46.6" xml:space="preserve">
<g>
	<path fill-rule="evenodd" clip-rule="evenodd" fill="#D74627" d="M8,17.5c0.1,0.4,0.3,0.8,0.6,1.2l4.8,8.3L11.7,33
		c-1.5,0.4-3.2-0.2-4.1-1.6l-2.3-4L8,17.5z"/>
	<path fill-rule="evenodd" clip-rule="evenodd" fill="#D74627" d="M7,3.2L2,21.7l-0.3-0.5C-1.8,14.9,0.3,7,6.5,3.5L7,3.2z"/>
	<path fill-rule="evenodd" clip-rule="evenodd" fill="#D74627" d="M20.4,0.8l-2,7.4c-2.2-1.1-4.8-1-7,0.3c-0.4,0.2-0.8,0.5-1.1,0.8
		l2.3-8.8C15.2-0.3,17.9-0.1,20.4,0.8z"/>
	<path fill-rule="evenodd" clip-rule="evenodd" fill="#D74627" d="M27.1,6.5l3,5.2l-2.6,9.8l-5.4-9.3l2.4-8.9
		C25.5,4.2,26.4,5.2,27.1,6.5z"/>
	<polygon fill-rule="evenodd" clip-rule="evenodd" fill="#D74627" points="30.8,27.2 33.5,17.4 38.8,26.8 36.2,36.5 	"/>
	<path fill-rule="evenodd" clip-rule="evenodd" fill="#D74627" d="M39.5,42.2l2.6-9.7l5.1,8.8c1,1.7,0.4,3.9-1.3,4.9
		c-1.7,1-3.9,0.4-4.9-1.3c0,0,0,0,0,0L39.5,42.2z"/>
</g>
</svg>
