<?xml version="1.0" encoding="utf-8"?>
<!-- Generator: Adobe Illustrator 17.0.1, SVG Export Plug-In . SVG Version: 6.00 Build 0)  -->
<!DOCTYPE svg PUBLIC "-//W3C//DTD SVG 1.1//EN" "http://www.w3.org/Graphics/SVG/1.1/DTD/svg11.dtd">
<svg version="1.1" id="Layer_1" xmlns="http://www.w3.org/2000/svg" xmlns:xlink="http://www.w3.org/1999/xlink" x="0px" y="0px"
	 width="43.1px" height="40.9px" viewBox="0 0 43.1 40.9" enable-background="new 0 0 43.1 40.9" xml:space="preserve">
<g>
	<path fill-rule="evenodd" clip-rule="evenodd" fill="#D74627" d="M33.8,13.5c-2.4-1.1-4.6-2.4-6.3-4.2c1.2-1.7,2.7-3.3,3.9-5
		c0.4-0.6,0.9-1.1,1.2-1.7c0.5-0.9,0.7-2.4,1.9-2.5c1-0.1,1.5,1.1,1.5,2.1c0,0.5-0.4,1.2-0.3,1.7c0.1,0.2,0.8,0.7,1.1,0.9
		c0.7,0.6,1.4,1.3,2,2c0.3,0.3,0.6,0.8,1,1C40.2,8,40.6,8,41.1,8.1c0.9,0.1,1.8,0.2,1.9,1c0,0.3,0,0.7-0.1,1c-0.5,1.6-1.6,3.2-4,3
		c-1-0.1-1.7-0.4-2.4-0.8c-0.2-0.1-0.4-0.3-0.8-0.3c-0.4,0-0.8,0.4-1.1,0.6C34.4,13,34.1,13.3,33.8,13.5z"/>
	<path fill-rule="evenodd" clip-rule="evenodd" fill="#D74627" d="M0,9c0-0.3,0-0.7,0-1c0.1-0.3,0.1-0.8,0.4-0.9C0.6,7,1,7,1.3,7.1
		C1.8,7.2,2,7.9,2.2,8.5C2.4,9,2.5,9.7,2.7,10.4c0.2,1,0.5,3.1,1.4,3.3c0.4,0.1,1.2,0,1.8,0c0.7,0,1.4,0,1.9,0
		c2.7,0,5.2,0.1,7.7,0.1c1.3,0,2.6,0.2,3.9,0c0,0,0,0,0.1,0c1.3-0.4,2.7-0.6,3.8-1.2c1.1-0.6,2-1.3,3-1.9c1.8,1.8,3.9,3.2,6.5,4.2
		c0.2,1.8,0.4,3.8,0.2,5.7c-0.2,1.7-0.7,3.4-1.1,5c-0.5,2.4-1,5.1-0.9,8.2c0,0.8-0.1,2.2,0.3,2.8c0.5,0.8,2.3,0.4,2,2
		c-0.2,0.9-1.3,1-2.3,1c-0.6,0-1.1-0.1-1.5-0.3c-1.6-0.7-1.1-3.6-1.3-5.8c-0.1-1.9-0.1-3.5-0.3-5.1c-0.4,1.6-0.8,3.6-1.1,5.3
		c-0.2,0.8-0.4,1.6-0.2,2.3c0.2,0.9,1.5,1,1.6,2c0,1.6-2.8,1.7-3.9,1c-1.2-0.7-0.9-2.2-0.7-3.9c0.2-1.7,0.3-3.3,0.5-4.8
		c0.2-1.5,0.4-2.9-0.3-3.8c-3-0.8-6.1-1.7-8.6-2.9c-0.3-0.2-0.9-0.5-1.1-0.5c-0.3,0-0.9,0.1-1.3,0.2c-0.5,0.1-1,0.1-1.3,0.3
		c-0.5,0.4-0.3,1.3-0.4,2.1c-0.1,0.6-0.2,1.4-0.3,1.9c-0.2,0.8-0.7,1.8-1,2.7c-0.2,0.4-0.3,0.9-0.5,1.4c-0.2,0.5-0.4,0.9-0.5,1.4
		C8.7,33.3,8.9,34,9,34.4c0.3,0.8,0.9,1.8,1.3,2.6c0.3,0.7,0.8,2.6-0.2,2.9c-0.5,0.2-0.9-0.1-1.5-0.4c-0.6-0.2-1.1-0.4-1.4-0.6
		c-0.9-0.7-1.3-2.4-1.6-3.7c-0.2-0.7-0.4-1.4-0.4-2.2c0-0.9,0-1.8,0-2.7c-0.7,0.4-0.7,1.3-0.9,2.1c-0.1,0.9-0.2,1.8-0.2,2.8
		c0,1,0.2,1.8,0.5,2.5c0.2,0.6,0.8,1.7,0.6,2.3c-0.2,0.6-1.4,0.9-2.3,0.7c-0.9-0.2-1.5-1.3-1.9-2.2c-0.7-1.9-1.2-4.7-0.5-6.9
		c0.3-1,0.9-1.8,1.2-2.9c0.3-1.2-0.1-2.2-0.5-3.3c-0.3-1-0.6-2.2-0.7-3.3c-0.3-2.7,0.3-4.9,1.5-6.4C0.7,14.3,0.4,11.6,0,9z"/>
</g>
</svg>
