<?xml version="1.0" encoding="utf-8"?>
<!-- Generator: Adobe Illustrator 17.0.1, SVG Export Plug-In . SVG Version: 6.00 Build 0)  -->
<!DOCTYPE svg PUBLIC "-//W3C//DTD SVG 1.1//EN" "http://www.w3.org/Graphics/SVG/1.1/DTD/svg11.dtd">
<svg version="1.1" id="Layer_1" xmlns="http://www.w3.org/2000/svg" xmlns:xlink="http://www.w3.org/1999/xlink" x="0px" y="0px"
	 width="34.1px" height="30.4px" viewBox="0 0 34.1 30.4" enable-background="new 0 0 34.1 30.4" xml:space="preserve">
<path fill-rule="evenodd" clip-rule="evenodd" fill="#FFF1C3" d="M8.7,0c0.5,0,1,0,1.5,0c3.4,0.3,5.6,1.8,6.9,4.3
	c1.3-2.4,3.5-3.9,6.9-4.3c0.5,0,1,0,1.5,0c5,0.8,8,3.7,8.7,8.8c0,0.6,0,1.2,0,1.8c-0.8,5.4-3.4,8.7-6.5,11.9c-2.7,2.7-5.7,4.9-9,7.1
	c-0.4,0.2-1.2,0.8-1.5,0.8c-0.3,0-1.1-0.6-1.5-0.9c-3.3-2.1-6.4-4.4-9-7.1C3.4,19.3,0.8,15.9,0,10.6C0,10,0,9.5,0,8.9
	C0.7,3.7,3.6,0.8,8.7,0z"/>
</svg>
