<?xml version="1.0" encoding="utf-8"?>
<!-- Generator: Adobe Illustrator 17.0.1, SVG Export Plug-In . SVG Version: 6.00 Build 0)  -->
<!DOCTYPE svg PUBLIC "-//W3C//DTD SVG 1.1//EN" "http://www.w3.org/Graphics/SVG/1.1/DTD/svg11.dtd">
<svg version="1.1" id="Layer_1" xmlns="http://www.w3.org/2000/svg" xmlns:xlink="http://www.w3.org/1999/xlink" x="0px" y="0px"
	 width="382.4px" height="61.2px" viewBox="0 0 382.4 61.2" enable-background="new 0 0 382.4 61.2" xml:space="preserve">
<g>
	<g>
		<g>
			<path fill="#D74627" d="M69.4,39.9c0-1.4,1.1-2.5,2.5-2.5h1.9c1.3,0,2.5,1.1,2.5,2.5v0.9c0,3.3,0.6,4.9,1.6,5.7
				c0.8,0.8,1.9,0.9,2.9,0.9c2.9,0,4.5-1.2,4.5-4.9c0-3.2-3.2-5.8-6.6-8.4v0.1c-4.6-3.6-9.3-7.3-9.3-14.1c0-7.8,4.1-12.3,11.4-12.3
				c7.5,0,11.4,4.8,11.4,13.5v1c0,1.4-1.1,2.5-2.5,2.5h-1.9c-1.4,0-2.5-1.1-2.5-2.5v-1c0-4.6-1.4-6.6-4.5-6.6
				c-2.9,0-4.5,1.6-4.5,5.2c0,3.5,3.4,6.2,6.8,8.8H83c4.6,3.5,9.2,7,9.2,13.7c0,7.7-4.1,11.9-11.4,11.9c-7.6,0-11.4-4.4-11.4-13.5
				V39.9z"/>
			<path fill="#D74627" d="M110.5,41.6h-7l-2.4,10.8c-0.3,1-1.4,1.9-2.4,1.9h-2c-1.7,0-2.8-1.4-2.4-3l3.3-14.6l6.3-27
				c0.3-1,1.4-1.9,2.4-1.9h1.5c1,0,2.2,0.9,2.4,1.9l9.5,41.5c0.3,1.6-0.8,3-2.4,3h-2c-1,0-2.1-0.9-2.4-1.9L110.5,41.6z M105.1,34.8
				h3.9c-0.8-3.3-0.6-5.2-1.9-11L105.1,34.8z"/>
			<path fill="#D74627" d="M130.4,35.9l6.1-26.3c0.2-1,1.4-1.9,2.4-1.9h2c1.7,0,2.8,1.4,2.4,3l-9.8,41.5c-0.3,1.1-1.4,1.9-2.4,1.9
				h-1.4c-1.1,0-2.2-0.8-2.4-1.9l-9.8-41.5c-0.4-1.6,0.7-3,2.4-3h1.9c1,0,2.1,0.9,2.4,1.9L130.4,35.9z"/>
			<path fill="#D74627" d="M164.6,7.8c1.4,0,2.5,1.1,2.5,2.5v1.9c0,1.4-1.1,2.5-2.5,2.5H154v13h8.7c1.4,0,2.5,1.1,2.5,2.5v1.9
				c0,1.4-1.1,2.5-2.5,2.5H154v13h10.6c1.4,0,2.5,1.1,2.5,2.5v1.9c0,1.4-1.1,2.5-2.5,2.5h-14.9c-1.4,0-2.5-1.1-2.5-2.5V10.3
				c0-1.4,1.1-2.5,2.5-2.5H164.6z"/>
			<path fill="#0A3844" d="M202.6,41.6h-7l-2.4,10.8c-0.3,1-1.4,1.9-2.4,1.9h-2c-1.7,0-2.8-1.4-2.4-3l3.3-14.6l6.3-27
				c0.3-1,1.4-1.9,2.4-1.9h1.5c1,0,2.2,0.9,2.4,1.9l9.5,41.5c0.3,1.6-0.8,3-2.4,3h-2c-1,0-2.1-0.9-2.4-1.9L202.6,41.6z M197.1,34.8
				h3.9c-0.8-3.3-0.6-5.2-1.9-11L197.1,34.8z"/>
			<path fill="#0A3844" d="M250.3,51.8c0,1.4-1.1,2.5-2.5,2.5h-14.7c-1.4,0-2.5-1.1-2.5-2.5V10.3c0-1.4,1.1-2.5,2.5-2.5h2
				c1.3,0,2.4,1.1,2.4,2.5v37.2h10.3c1.4,0,2.5,1.1,2.5,2.5V51.8z"/>
			<path fill="#0A3844" d="M260.9,51.8c0,1.4-1.2,2.5-2.5,2.5h-1.9c-1.4,0-2.5-1.1-2.5-2.5V10.3c0-1.4,1.1-2.5,2.5-2.5h1.9
				c1.3,0,2.5,1.1,2.5,2.5V51.8z"/>
			<path fill="#0A3844" d="M282.7,7.8c1.4,0,2.5,1.1,2.5,2.5v1.9c0,1.4-1.1,2.5-2.5,2.5h-10.5v13h7.7c1.4,0,2.5,1.1,2.5,2.5v1.9
				c0,1.4-1.1,2.5-2.5,2.5h-7.7v17.4c0,1.4-1.2,2.5-2.5,2.5h-1.9c-1.4,0-2.5-1.1-2.5-2.5V10.3c0-1.4,1.1-2.5,2.5-2.5H282.7z"/>
			<path fill="#0A3844" d="M307.6,7.8c1.4,0,2.5,1.1,2.5,2.5v1.9c0,1.4-1.1,2.5-2.5,2.5H297v13h8.7c1.4,0,2.5,1.1,2.5,2.5v1.9
				c0,1.4-1.1,2.5-2.5,2.5H297v13h10.6c1.4,0,2.5,1.1,2.5,2.5v1.9c0,1.4-1.1,2.5-2.5,2.5h-14.9c-1.4,0-2.5-1.1-2.5-2.5V10.3
				c0-1.4,1.1-2.5,2.5-2.5H307.6z"/>
		</g>
	</g>
	<g>
		<path fill="#D74627" d="M326.6,0v13.4c9.5,0,17.1,7.7,17.1,17.1s-7.7,17.1-17.1,17.1v13.4c16.9,0,30.6-13.7,30.6-30.6
			C357.2,13.7,343.5,0,326.6,0z"/>
		<path fill="#D74627" d="M327,0L327,0c-3.7,0-6.7,3-6.7,6.7c0,3.7,3,6.7,6.7,6.7h0V0z"/>
		<path fill="#D74627" d="M327,47.7L327,47.7c-3.7,0-6.7,3-6.7,6.7c0,3.7,3,6.7,6.7,6.7h0V47.7z"/>
		<polygon fill="#D74627" points="348.2,15.1 348.2,45.9 353.1,45.9 382.4,15.1 		"/>
	</g>
	<g>
		<path fill="#D74627" d="M55.8,61.2V47.7c-9.5,0-17.1-7.7-17.1-17.1s7.7-17.1,17.1-17.1V0C38.9,0,25.2,13.7,25.2,30.6
			C25.2,47.5,38.9,61.2,55.8,61.2z"/>
		<path fill="#D74627" d="M55.4,61.2L55.4,61.2c3.7,0,6.7-3,6.7-6.7c0-3.7-3-6.7-6.7-6.7h0V61.2z"/>
		<path fill="#D74627" d="M55.4,13.4L55.4,13.4c3.7,0,6.7-3,6.7-6.7S59.2,0,55.4,0h0V13.4z"/>
		<polygon fill="#D74627" points="34.2,46 34.2,15.3 29.3,15.3 0,46 		"/>
	</g>
</g>
</svg>
