<?xml version="1.0" encoding="utf-8"?>
<!-- Generator: Adobe Illustrator 17.0.1, SVG Export Plug-In . SVG Version: 6.00 Build 0)  -->
<!DOCTYPE svg PUBLIC "-//W3C//DTD SVG 1.1//EN" "http://www.w3.org/Graphics/SVG/1.1/DTD/svg11.dtd">
<svg version="1.1" id="Layer_1" xmlns="http://www.w3.org/2000/svg" xmlns:xlink="http://www.w3.org/1999/xlink" x="0px" y="0px"
	 width="45.3px" height="30.7px" viewBox="0 0 45.3 30.7" enable-background="new 0 0 45.3 30.7" xml:space="preserve">
<g>
	<path fill-rule="evenodd" clip-rule="evenodd" fill="#FFF2C2" d="M13.3,6.7c0,3.7-3,6.7-6.7,6.7l0,0C3,13.3,0,10.3,0,6.7l0,0
		C0,3,3,0,6.7,0l0,0C10.3,0,13.3,3,13.3,6.7L13.3,6.7z"/>
	<path fill-rule="evenodd" clip-rule="evenodd" fill="#FFF2C2" d="M29.3,6.7c0,3.7-3,6.7-6.7,6.7l0,0c-3.7,0-6.7-3-6.7-6.7l0,0
		C16,3,19,0,22.7,0l0,0C26.3,0,29.3,3,29.3,6.7L29.3,6.7z"/>
	<path fill-rule="evenodd" clip-rule="evenodd" fill="#FFF2C2" d="M45.3,6.7c0,3.7-3,6.7-6.7,6.7l0,0c-3.7,0-6.7-3-6.7-6.7l0,0
		C32,3,35,0,38.7,0l0,0C42.3,0,45.3,3,45.3,6.7L45.3,6.7z"/>
	<path fill-rule="evenodd" clip-rule="evenodd" fill="#FFF2C2" d="M45.3,24c0,3.7-3,6.7-6.7,6.7h-32C3,30.7,0,27.7,0,24l0,0
		c0-3.7,3-6.7,6.7-6.7h32C42.3,17.3,45.3,20.3,45.3,24L45.3,24z"/>
</g>
</svg>
