<?xml version="1.0" encoding="utf-8"?>
<!-- Generator: Adobe Illustrator 17.0.1, SVG Export Plug-In . SVG Version: 6.00 Build 0)  -->
<!DOCTYPE svg PUBLIC "-//W3C//DTD SVG 1.1//EN" "http://www.w3.org/Graphics/SVG/1.1/DTD/svg11.dtd">
<svg version="1.1" id="Layer_1" xmlns="http://www.w3.org/2000/svg" xmlns:xlink="http://www.w3.org/1999/xlink" x="0px" y="0px"
	 width="46px" height="45.9px" viewBox="0 0 46 45.9" enable-background="new 0 0 46 45.9" xml:space="preserve">
<path fill-rule="evenodd" clip-rule="evenodd" fill="#FFF2C2" d="M18.7,35c2,3.5,2.4,7.4,2.2,10.9C9.3,44.9,0.1,35.2,0,23.3
	C3.7,24.2,14.4,27.3,18.7,35z"/>
<path fill-rule="evenodd" clip-rule="evenodd" fill="#FFF2C2" d="M43.4,33.7C39.8,40.5,33,45.2,25,45.9c0.2-4.1-0.4-8.6-2.8-12.9
	C16.8,23.4,3.8,20,0.3,19.3C2.1,8.3,11.6,0,23,0c1.8,0,3.5,0.2,5.1,0.6c-1.4,4.8-3.1,13.9,1.3,21.8C32.6,28,38.4,31.6,43.4,33.7z"/>
<path fill-rule="evenodd" clip-rule="evenodd" fill="#FFF2C2" d="M46,23c0,2.1-0.3,4.1-0.8,6c-4.2-1.8-8.9-4.7-11.4-9.1
	c-3.4-6.2-2.1-13.6-1-17.7C40.6,5.9,46,13.8,46,23z"/>
</svg>
