<?xml version="1.0" encoding="utf-8"?>
<!-- Generator: Adobe Illustrator 17.0.1, SVG Export Plug-In . SVG Version: 6.00 Build 0)  -->
<!DOCTYPE svg PUBLIC "-//W3C//DTD SVG 1.1//EN" "http://www.w3.org/Graphics/SVG/1.1/DTD/svg11.dtd">
<svg version="1.1" id="Layer_1" xmlns="http://www.w3.org/2000/svg" xmlns:xlink="http://www.w3.org/1999/xlink" x="0px" y="0px"
	 width="62.3px" height="48px" viewBox="0 0 62.3 48" enable-background="new 0 0 62.3 48" xml:space="preserve">
<path fill="#FFF2C2" d="M30.8,0v7.6c5.3,0,9.7,4.3,9.7,9.7c0,5.3-4.3,9.7-9.7,9.7v7.6c9.5,0,17.3-7.7,17.3-17.3
	C48,7.7,40.3,0,30.8,0z"/>
<path fill="#FFF2C2" d="M31,0L31,0c-2.1,0-3.8,1.7-3.8,3.8c0,2.1,1.7,3.8,3.8,3.8h0V0z"/>
<path fill="#FFF2C2" d="M31,26.9L31,26.9c-2.1,0-3.8,1.7-3.8,3.8c0,2.1,1.7,3.8,3.8,3.8h0V26.9z"/>
<polygon fill="#FFF2C2" points="42.9,8.5 42.9,25.9 45.7,25.9 62.3,8.5 "/>
<path fill="#FFF2C2" d="M31.5,48v-7.6c-5.3,0-9.7-4.3-9.7-9.7c0-5.3,4.3-9.7,9.7-9.7v-7.6c-9.5,0-17.3,7.7-17.3,17.3
	C14.2,40.2,21.9,48,31.5,48z"/>
<path fill="#FFF2C2" d="M31.3,48L31.3,48c2.1,0,3.8-1.7,3.8-3.8c0-2.1-1.7-3.8-3.8-3.8h0V48z"/>
<path fill="#FFF2C2" d="M31.3,21L31.3,21c2.1,0,3.8-1.7,3.8-3.8c0-2.1-1.7-3.8-3.8-3.8h0V21z"/>
<polygon fill="#FFF2C2" points="19.3,39.4 19.3,22.1 16.5,22.1 0,39.4 "/>
</svg>
