<?xml version="1.0" encoding="utf-8"?>
<!-- Generator: Adobe Illustrator 17.0.1, SVG Export Plug-In . SVG Version: 6.00 Build 0)  -->
<!DOCTYPE svg PUBLIC "-//W3C//DTD SVG 1.1//EN" "http://www.w3.org/Graphics/SVG/1.1/DTD/svg11.dtd">
<svg version="1.1" id="Layer_1" xmlns="http://www.w3.org/2000/svg" xmlns:xlink="http://www.w3.org/1999/xlink" x="0px" y="0px"
	 width="26.8px" height="72.2px" viewBox="0 0 26.8 72.2" enable-background="new 0 0 26.8 72.2" xml:space="preserve">
<path fill="#FFF1C2" d="M26.8,63.9c0,4.6-3.8,8.4-8.4,8.4c-1.9,0-3.6-0.6-5-1.7c-1.4,1-3.1,1.7-5,1.7c-4.6,0-8.4-3.8-8.4-8.4
	c0-4.4,3.5-8.1,7.8-8.4V16.7C3.5,16.4,0,12.8,0,8.4C0,3.8,3.7,0,8.4,0c1.9,0,3.6,0.6,5,1.7c1.4-1.1,3.1-1.7,5-1.7
	c4.6,0,8.4,3.7,8.4,8.4c0,4.4-3.5,8.1-7.8,8.3v38.8C23.3,55.8,26.8,59.4,26.8,63.9z"/>
<path fill="#FFF1C2" d="M26.8,63.9c0,4.6-3.8,8.4-8.4,8.4c-1.9,0-3.6-0.6-5-1.7c-1.4,1-3.1,1.7-5,1.7c-4.6,0-8.4-3.8-8.4-8.4
	c0-4.4,3.5-8.1,7.8-8.4V29H19v26.5C23.3,55.8,26.8,59.4,26.8,63.9z"/>
</svg>
